<svg width="300" height="300" viewBox="0 0 300 300" fill="none" xmlns="http://www.w3.org/2000/svg">
<g clip-path="url(#clip0_506_270)">
<rect width="300" height="300" rx="150" fill="white"/>
<path fill-rule="evenodd" clip-rule="evenodd" d="M152.414 197.798H137.531C136.766 197.848 136.004 197.657 135.353 197.252C134.702 196.848 134.194 196.249 133.9 195.541L131.746 191.028L131.695 190.915L129.592 186.72L128.936 185.356L128.604 184.672L128.603 184.671L128.602 184.668C125.434 178.134 122.174 171.409 118.904 164.493C114.198 174.92 109.353 185.284 104.37 195.582V195.685L104.318 195.777C103.975 196.352 103.496 196.835 102.923 197.182C102.341 197.53 101.673 197.708 100.995 197.695H86.9326C86.3444 197.724 85.7629 197.56 85.2761 197.229C84.7893 196.898 84.4238 196.417 84.2349 195.859C84.1114 195.434 84.087 194.987 84.1634 194.551C84.2399 194.116 84.4152 193.703 84.676 193.346L107.539 149.64L85.4248 105.391C85.1273 104.961 84.9578 104.455 84.936 103.932C84.9143 103.409 85.041 102.891 85.3017 102.437C85.5523 102.025 85.9049 101.686 86.3254 101.45C86.7459 101.215 87.22 101.092 87.7019 101.093H102.411C103.125 101.055 103.836 101.219 104.462 101.565C105.098 101.954 105.589 102.541 105.857 103.237C111.355 114.776 115.991 124.777 120.043 133.65C125.079 122.367 130.433 110.899 134.023 103.299L134.074 103.186L134.136 103.083V102.97C134.393 102.532 134.715 102.134 135.09 101.791C135.725 101.261 136.53 100.98 137.357 101.001H151.132C151.659 100.987 152.178 101.126 152.628 101.401C153.077 101.675 153.438 102.075 153.665 102.55C153.847 102.985 153.92 103.458 153.879 103.928C153.838 104.397 153.684 104.85 153.43 105.248L131.305 148.194L154.712 193.326C154.958 193.717 155.112 194.16 155.164 194.62C155.215 195.08 155.163 195.545 155.009 195.982C154.816 196.513 154.462 196.971 153.997 197.293C153.533 197.614 152.979 197.784 152.414 197.777V197.798ZM188.694 198.987C184.258 199.166 179.832 198.44 175.687 196.853C171.541 195.266 167.761 192.851 164.579 189.756C157.916 182.16 154.498 172.253 155.06 162.164C154.854 152.359 158.352 142.836 164.856 135.496C168.256 131.901 172.378 129.066 176.951 127.176C181.524 125.286 186.445 124.385 191.391 124.531H193.781V104.017C193.781 102.417 195.084 101.114 196.684 101.104H210.193C210.942 101.076 211.675 101.332 212.244 101.822C212.522 102.084 212.74 102.403 212.885 102.757C213.03 103.111 213.098 103.491 213.085 103.873V182.638C213.034 185.356 213.177 188.074 213.495 190.771V191.028C213.511 191.68 213.309 192.319 212.921 192.843C212.586 193.255 212.162 193.585 211.68 193.808C204.561 197.205 196.776 198.978 188.888 198.998L188.694 198.987ZM174.069 162.577C174.069 173.035 182.82 181.532 193.676 181.689V143.464C182.82 143.621 174.069 152.118 174.069 162.577Z" fill="#FF61F6"/>
</g>
<defs>
<clipPath id="clip0_506_270">
<rect width="300" height="300" rx="150" fill="white"/>
</clipPath>
</defs>
</svg>
