<svg width="300" height="300" viewBox="0 0 300 300" fill="none" xmlns="http://www.w3.org/2000/svg">
<rect width="300" height="300" rx="150" fill="white"/>
<path d="M97 97.5C97 82.8645 108.864 71 123.5 71H150V124H123.5C108.864 124 97 112.136 97 97.5V97.5Z" fill="#F24E1E"/>
<path d="M97 150.5C97 135.864 108.864 124 123.5 124H150V177H123.5C108.864 177 97 165.136 97 150.5V150.5Z" fill="#A259FF"/>
<path d="M97 203.5C97 188.864 108.864 177 123.5 177H150V203.5C150 218.136 138.136 230 123.5 230V230C108.864 230 97 218.136 97 203.5V203.5Z" fill="#0ACF83"/>
<path d="M203 97.5C203 112.136 191.136 124 176.5 124L150 124L150 71L176.5 71C191.136 71 203 82.8645 203 97.5V97.5Z" fill="#FF7262"/>
<path d="M203 150.5C203 165.136 190.883 177 176.248 177V177C161.888 177 150 165.112 150 150.752V150.752C150 136.117 161.864 124 176.5 124V124C191.136 124 203 135.864 203 150.5V150.5Z" fill="#1ABCFE"/>
</svg>
