<svg width="217" height="217" viewBox="0 0 217 217" fill="none" xmlns="http://www.w3.org/2000/svg">
<circle cx="108.5" cy="108.5" r="108.5" fill="#9ED5C5"/>
<path d="M96.4104 183.926L90.6172 201.316L88.9151 200.749L86.4129 185.966L75.5948 196.312L73.8927 195.745L79.686 178.354L81.5607 178.979L77.0329 192.57L86.4618 183.599L87.7938 184.042L90.0408 196.876L94.5604 183.309L96.4104 183.926Z" fill="#FEFFFE"/>
<path d="M58.1985 164.593C58.8193 165.197 59.263 165.86 59.5298 166.579C59.7721 167.299 59.8303 168.01 59.7046 168.71C59.5789 169.41 59.262 170.021 58.754 170.543C58.1129 171.201 57.4373 171.559 56.7271 171.617C56.0045 171.663 55.1735 171.386 54.2341 170.785C53.2702 170.185 52.1054 169.219 50.7398 167.889L50.1439 167.308L49.5814 167.886C48.8315 168.655 48.4546 169.365 48.4508 170.015C48.4225 170.665 48.7559 171.328 49.4512 172.006C49.9974 172.538 50.6037 172.971 51.2699 173.306C51.9241 173.653 52.6875 173.913 53.56 174.085L53.0109 175.692C52.2126 175.567 51.3814 175.278 50.5175 174.823C49.6411 174.357 48.8926 173.821 48.2718 173.216C47.1048 172.079 46.5202 170.953 46.5179 169.838C46.5032 168.71 47.0826 167.544 48.2559 166.34L53.8079 160.641L55.2232 162.02L53.6991 163.585C54.4552 163.281 55.2327 163.215 56.0317 163.389C56.8182 163.55 57.5405 163.951 58.1985 164.593ZM56.8497 165.493C56.1048 164.767 55.2485 164.429 54.2808 164.478C53.3009 164.54 52.424 164.968 51.6498 165.763L51.1055 166.321L51.6828 166.884C52.6884 167.864 53.5314 168.588 54.2116 169.057C54.8674 169.527 55.4281 169.758 55.8938 169.752C56.335 169.747 56.7492 169.545 57.1362 169.148C57.6322 168.639 57.8636 168.054 57.8305 167.392C57.7849 166.719 57.458 166.085 56.8497 165.493Z" fill="#FEFFFE"/>
<path d="M43.3892 147.045L32.1364 152.794L31.202 150.964L33.2164 149.935C31.5505 150.027 30.171 149.175 29.078 147.378L28.6655 146.742L30.2153 145.775L30.9575 146.885C31.5942 147.903 32.3477 148.54 33.2182 148.796C34.0732 149.06 35.0023 148.935 36.0057 148.423L42.4193 145.147L43.3892 147.045Z" fill="#FEFFFE"/>
<path d="M34.7666 123.433C35.0261 124.69 34.8575 125.716 34.2608 126.511C33.6437 127.294 32.6307 127.83 31.2217 128.122L17.3702 130.983L16.9441 128.92L30.6429 126.091C32.4592 125.715 33.2184 124.806 32.9203 123.364C32.8326 122.939 32.7028 122.568 32.5308 122.249L34.2728 121.943C34.5003 122.444 34.6649 122.941 34.7666 123.433Z" fill="#FEFFFE"/>
<path d="M33.583 102.776C33.3776 104.759 32.6374 106.268 31.3626 107.303C30.0705 108.337 28.4245 108.75 26.4246 108.543C25.1315 108.409 24.0204 108.032 23.0912 107.413C22.1448 106.793 21.4508 106.006 21.0092 105.054C20.5522 104.083 20.3853 103.003 20.5085 101.813C20.6854 100.107 21.3755 98.8275 22.579 97.9764C23.7652 97.1234 25.3152 96.796 27.2289 96.9943L28.0306 97.0774L27.05 106.543C28.4882 106.622 29.6258 106.322 30.463 105.642C31.283 104.96 31.7626 103.947 31.902 102.602C31.9805 101.843 31.9435 101.107 31.7908 100.394C31.6209 99.6799 31.3008 98.9845 30.8307 98.3085L32.3798 97.737C32.8553 98.3614 33.2027 99.1293 33.422 100.041C33.624 100.95 33.6776 101.862 33.583 102.776ZM22.0656 101.922C21.9423 103.112 22.2157 104.09 22.8856 104.857C23.5555 105.623 24.4877 106.129 25.682 106.375L26.4724 98.7457C25.1912 98.6652 24.165 98.8987 23.3938 99.4462C22.6244 99.9764 22.1817 100.802 22.0656 101.922Z" fill="#FEFFFE"/>
<path d="M42.7161 82.4785L39.3261 78.3485L25.8298 77.5028L26.8614 75.4605L37.8924 76.3427L30.6477 67.9645L31.6441 65.9918L43.7125 80.5058L42.7161 82.4785Z" fill="#FEFFFE"/>
<path d="M70.1445 43.2927L57.6101 28.4562L59.6992 27.6591L69.9553 40.0255L69.4889 23.9239L71.0922 23.3122L81.4675 35.7723L80.9304 19.5585L82.9223 18.7985L83.4564 38.2136L81.6831 38.8902L71.4248 26.6638L71.8692 42.6346L70.1445 43.2927Z" fill="#FEFFFE"/>
<path d="M117.059 34.9332C115.086 34.6474 113.608 33.8465 112.625 32.5307C111.645 31.1977 111.299 29.5362 111.587 27.5463C111.774 26.2598 112.195 25.1649 112.851 24.2616C113.51 23.3412 114.324 22.6798 115.293 22.2772C116.282 21.86 117.368 21.7372 118.552 21.9086C120.25 22.1547 121.5 22.8962 122.301 24.1333C123.105 25.3532 123.37 26.9152 123.094 28.8193L122.978 29.617L113.56 28.2525C113.423 29.6863 113.677 30.8352 114.322 31.6994C114.97 32.5464 115.963 33.0668 117.301 33.2606C118.056 33.37 118.792 33.3629 119.511 33.2393C120.232 33.0985 120.94 32.807 121.634 32.3647L122.142 33.9358C121.499 34.3855 120.718 34.7014 119.798 34.8834C118.881 35.0483 117.968 35.0649 117.059 34.9332ZM118.379 23.46C117.196 23.2885 116.207 23.5219 115.414 24.1601C114.621 24.7983 114.078 25.7091 113.784 26.8925L121.375 27.9923C121.507 26.7154 121.315 25.6806 120.8 24.8878C120.301 24.0975 119.494 23.6215 118.379 23.46Z" fill="#FEFFFE"/>
<path d="M141.523 42.361C140.655 41.8884 139.899 41.3189 139.256 40.6525C138.612 39.9861 138.159 39.2953 137.898 38.5803L139.2 37.6022C139.508 38.3421 139.931 38.9969 140.469 39.5666C141.031 40.1293 141.654 40.5972 142.339 40.9703C143.207 41.4429 143.949 41.6396 144.564 41.5604C145.18 41.4812 145.637 41.1676 145.935 40.6196C146.167 40.1934 146.205 39.7798 146.049 39.3787C145.9 38.9624 145.552 38.5158 145.002 38.0388L143.173 36.4504C141.509 35.0113 141.096 33.523 141.934 31.9857C142.481 30.981 143.316 30.3899 144.439 30.2122C145.578 30.0427 146.794 30.3104 148.088 31.0152C148.849 31.4298 149.506 31.9454 150.058 32.5621C150.634 33.1718 151.026 33.8293 151.233 34.5347L149.908 35.5004C149.691 34.8489 149.343 34.255 148.865 33.7185C148.411 33.1751 147.895 32.7459 147.317 32.4308C146.464 31.9665 145.726 31.7815 145.102 31.876C144.479 31.9704 144.017 32.2916 143.719 32.8396C143.255 33.692 143.519 34.5467 144.513 35.4038L146.354 36.9694C147.212 37.7132 147.764 38.4578 148.009 39.2033C148.263 39.9336 148.174 40.6945 147.743 41.486C147.188 42.5058 146.345 43.0928 145.215 43.247C144.093 43.386 142.862 43.0907 141.523 42.361Z" fill="#FEFFFE"/>
<path d="M162.478 58.1596C161.456 57.0745 160.973 55.9933 161.03 54.9159C161.1 53.8267 161.677 52.771 162.762 51.7489L167.588 47.2031L165.895 45.4051L167.087 44.2821L168.781 46.0801L171.601 43.4239L173.045 44.9569L170.224 47.6131L172.97 50.5278L171.777 51.6509L169.032 48.7362L164.357 53.1394C163.638 53.8168 163.232 54.4852 163.139 55.1445C163.058 55.792 163.338 56.4564 163.98 57.1378C164.17 57.3396 164.386 57.5178 164.626 57.6721C164.867 57.8264 165.09 57.9619 165.295 58.0784L164.371 59.4486C164.128 59.3677 163.82 59.2053 163.447 58.9611C163.075 58.717 162.751 58.4498 162.478 58.1596Z" fill="#FEFFFE"/>
<path d="M175.031 76.4999C174.201 74.6875 174.073 73.0116 174.645 71.4722C175.233 69.9256 176.441 68.7338 178.27 67.8968C179.452 67.3557 180.6 67.1158 181.715 67.1773C182.845 67.2316 183.843 67.5567 184.706 68.1525C185.593 68.7569 186.285 69.6028 186.783 70.6903C187.498 72.2505 187.552 73.7028 186.948 75.0472C186.359 76.3843 185.19 77.4534 183.441 78.2543L182.708 78.5898L178.746 69.9376C177.467 70.5995 176.64 71.4359 176.264 72.4469C175.903 73.4506 176.005 74.5671 176.568 75.7964C176.885 76.4898 177.291 77.1048 177.784 77.6414C178.293 78.1708 178.922 78.6073 179.67 78.951L178.626 80.2299C177.899 79.9335 177.21 79.4483 176.559 78.7745C175.923 78.0934 175.413 77.3352 175.031 76.4999ZM185.386 71.387C184.889 70.2995 184.157 69.5957 183.19 69.2756C182.224 68.9555 181.164 68.9928 180.01 69.3876L183.203 76.3614C184.348 75.7802 185.113 75.0579 185.5 74.1947C185.893 73.3473 185.856 72.4114 185.386 71.387Z" fill="#FEFFFE"/>
<path d="M181.799 96.6479L194.368 95.3458L194.579 97.3889L192.329 97.6219C193.916 98.1372 194.895 99.4298 195.267 101.5L195.422 102.242L193.628 102.585L193.336 101.282C193.109 100.103 192.636 99.2369 191.917 98.6841C191.214 98.1295 190.303 97.9103 189.182 98.0264L182.019 98.7686L181.799 96.6479Z" fill="#FEFFFE"/>
<path d="M181.597 122.034L195.122 119.528L194.616 121.759L183.7 123.577L192.754 129.975L192.277 132.08L181.161 123.961L181.597 122.034Z" fill="#FEFFFE"/>
<path d="M170.794 148.963C171.898 147.304 173.256 146.313 174.866 145.99C176.491 145.676 178.14 146.077 179.814 147.191C180.896 147.911 181.704 148.762 182.238 149.742C182.787 150.732 183.035 151.751 182.983 152.799C182.935 153.871 182.58 154.905 181.918 155.901C180.967 157.329 179.76 158.14 178.299 158.333C176.852 158.536 175.328 158.104 173.726 157.038L173.056 156.591L178.329 148.67C177.093 147.931 175.947 147.667 174.889 147.879C173.846 148.101 172.95 148.774 172.201 149.9C171.778 150.535 171.468 151.203 171.272 151.905C171.089 152.617 171.049 153.381 171.15 154.198L169.513 153.983C169.383 153.209 169.433 152.368 169.663 151.459C169.908 150.56 170.285 149.728 170.794 148.963ZM180.59 155.079C181.253 154.084 181.466 153.091 181.23 152.101C180.994 151.111 180.405 150.229 179.462 149.455L175.211 155.84C176.308 156.507 177.325 156.778 178.262 156.653C179.19 156.542 179.966 156.017 180.59 155.079Z" fill="#FEFFFE"/>
<path d="M154.1 167.429C155.101 166.626 156.091 166.309 157.071 166.477C158.049 166.671 158.988 167.328 159.888 168.45L168.743 179.479L167.101 180.798L158.344 169.89C157.183 168.444 156.028 168.182 154.879 169.104C154.541 169.376 154.269 169.66 154.064 169.958L152.998 168.547C153.341 168.116 153.708 167.743 154.1 167.429Z" fill="#FEFFFE"/>
<path d="M137.03 177.546C138.398 176.955 139.579 176.869 140.573 177.29C141.573 177.726 142.369 178.628 142.961 179.997L145.591 186.083L147.858 185.103L148.508 186.607L146.24 187.586L147.777 191.143L145.844 191.978L144.307 188.422L140.632 190.01L139.982 188.507L143.657 186.918L141.11 181.023C140.718 180.116 140.228 179.507 139.64 179.194C139.059 178.898 138.338 178.935 137.479 179.307C137.224 179.417 136.984 179.558 136.757 179.732C136.529 179.906 136.326 180.069 136.147 180.222L135.173 178.887C135.332 178.686 135.59 178.452 135.946 178.185C136.303 177.917 136.664 177.704 137.03 177.546Z" fill="#FEFFFE"/>
<path d="M121.973 182.408L122.391 185.027L119.773 185.445L119.354 182.827L121.973 182.408Z" fill="#FEFFFE"/>
<path d="M91.0725 128.311C93.4696 116.835 95.55 105.37 97.0867 93.7432C97.6496 89.484 97.7579 84.6006 99.148 80.4834C99.2664 80.1327 99.5167 79.3515 99.8028 79.5865C101.436 80.9275 100.945 83.662 101.306 85.7437C102.295 91.4447 103.04 97.1859 103.901 102.906C104.204 104.918 104.346 109.758 105.623 111.73C105.707 111.86 105.935 111.586 105.987 111.439C106.741 109.302 106.919 107.003 107.321 104.773C108.348 99.0704 109.266 93.3554 110.182 87.6345C110.6 85.0246 110.751 81.4086 111.952 78.932C112.521 77.7592 112.696 81.4436 112.85 82.7378C114.125 93.4509 115.379 104.149 116.875 114.833C116.907 115.056 118.338 122.291 116.293 122.105C113.194 121.824 111.354 109.432 110.813 107.367C109.655 102.955 108.625 98.5122 107.539 94.0826C107.135 92.4369 106.228 87.554 106.011 89.2344C105.365 94.2367 106.05 100.336 106.278 105.233C106.639 113.005 107.154 120.78 108.776 128.408C108.893 128.961 109.791 134.243 110.91 134.832C112.199 135.51 112.218 132.2 112.559 130.783C114.536 122.565 115.166 113.976 117.263 105.815C117.475 104.99 118.863 106.646 119.276 107.391C121.322 111.079 122.913 114.985 124.781 118.76C125.212 119.632 125.629 120.517 126.163 121.329C126.895 122.443 127.157 122.467 127.424 121.233C128.015 118.509 127.758 115.409 127.837 112.651C128.008 106.671 128.176 100.696 128.176 94.7129" stroke="#FEFFFE" stroke-width="3" stroke-linecap="round"/>
</svg>
