<svg width="300" height="300" viewBox="0 0 300 300" fill="none" xmlns="http://www.w3.org/2000/svg">
<rect width="300" height="300" rx="150" fill="white"/>
<path d="M103.64 81.0274L150 76.1688L196.36 81.0333L232.25 128.85L150 223.831L67.75 128.85L103.64 81.0274Z" fill="#FDB300"/>
<path d="M101.067 128.821L150 223.831L67.75 128.821H101.067ZM198.933 128.821L150 223.831L232.25 128.821H198.933Z" fill="#EA6C00"/>
<path d="M101.067 128.821H198.933L150 223.831L101.067 128.821Z" fill="#FDAD00"/>
<path d="M150 76.1688L103.64 81.0274L101.067 128.821L150 76.1688ZM150 76.1688L196.36 81.0274L198.933 128.821L150 76.1688Z" fill="#FDD231"/>
<path d="M232.25 128.821L196.36 81.0275L198.933 128.821H232.25ZM67.75 128.821L103.64 81.0275L101.067 128.821H67.75Z" fill="#FDAD00"/>
<path d="M150 76.1688L101.067 128.821H198.933L150 76.1688Z" fill="#FEEEB7"/>
</svg>
